<svg width="75" height="84" viewBox="0 0 75 84" fill="none" xmlns="http://www.w3.org/2000/svg">
<path d="M30.8274 50.1305C30.653 50.7708 30.551 51.4267 30.5232 52.0873C30.1415 54.6905 29.9087 57.3114 29.8257 59.9383C29.8257 60.3816 29.6151 60.5789 29.1507 60.5704C28.6107 60.5611 28.0752 60.5781 27.5379 60.5704C26.9079 60.5568 26.7909 60.425 26.8818 59.8243C27.1941 57.7603 27.5244 55.6989 27.8304 53.634C28.3038 50.4411 28.7628 47.2464 29.2317 44.0534C29.274 43.7675 29.2452 43.3975 29.6709 43.3609C30.1533 43.3192 30.7041 43.1711 31.0209 43.7012C31.3521 44.2482 31.6572 44.8072 31.9578 45.373C33.5544 48.3609 35.1843 51.3284 36.9455 54.2364C37.0787 54.4559 37.1507 54.8115 37.445 54.8192C37.7393 54.8268 37.8167 54.4678 37.9445 54.2466C39.9383 50.8038 41.9285 47.359 43.9151 43.9122C44.0363 43.6646 44.2523 43.4697 44.5195 43.3666C44.7867 43.2635 45.0852 43.2599 45.3551 43.3566C45.7034 43.4468 45.7349 43.7114 45.7664 43.9717C45.941 45.4342 46.0931 46.8984 46.2794 48.3592C46.7666 52.1684 47.2613 55.9768 47.7635 59.7843C47.8535 60.4709 47.7707 60.567 47.0597 60.5756C46.3928 60.5841 45.7241 60.5594 45.0581 60.5832C44.9535 60.604 44.8453 60.6015 44.742 60.5758C44.6387 60.5502 44.5431 60.5022 44.4628 60.4356C44.3825 60.3689 44.3198 60.2855 44.2796 60.192C44.2393 60.0984 44.2227 59.9973 44.231 59.8966C44.0753 58.1508 43.9043 56.4084 43.7306 54.6635C43.5902 53.2512 43.4372 51.8397 43.286 50.4274C43.2716 50.2947 43.3184 50.0939 43.151 50.0608C42.9476 50.0199 42.9062 50.242 42.8324 50.3696C41.8775 52.0329 40.9064 53.6876 39.9875 55.3688C39.2135 56.7853 38.4971 58.23 37.7663 59.6669C37.5953 60.0072 37.4144 60.2625 36.9563 60.2625C36.7708 60.2605 36.5906 60.2032 36.4416 60.0987C36.2926 59.9942 36.1823 59.8478 36.1265 59.6805C34.5309 56.6339 32.9181 53.5958 31.2225 50.5976C31.1325 50.4351 31.0938 50.225 30.8238 50.1356" fill="#D1D1D1"/>
<path d="M13.6967 49.1633C13.6967 50.6522 13.7021 52.141 13.6967 53.6299C13.6958 54.1722 13.7486 54.7134 13.8542 55.2464C13.939 56.0969 14.3416 56.8909 14.9898 57.4861C15.6381 58.0812 16.4894 58.4385 17.3912 58.4938C19.1183 58.7184 20.7922 58.618 22.036 57.2423C22.883 56.2479 23.3189 54.9965 23.2627 53.721C23.2798 50.5858 23.269 47.4499 23.2699 44.3147C23.2699 43.3457 23.2978 43.3193 24.3382 43.3202C26.0725 43.3202 25.9375 43.184 25.9375 44.8124C25.9375 47.8429 25.96 50.8734 25.9276 53.903C25.9624 54.8527 25.7856 55.7986 25.4087 56.6795C25.0318 57.5604 24.4632 58.3565 23.7397 59.0162C22.9121 59.7535 21.8972 60.2763 20.7931 60.534C18.8093 61.0267 16.7202 60.9935 14.7551 60.4379C13.5191 60.0856 12.431 59.3758 11.6441 58.4083C10.8572 57.4409 10.4111 56.2645 10.3685 55.0448C10.1147 51.3532 10.3127 47.6566 10.2542 43.9625C10.247 43.4827 10.4936 43.3091 10.9742 43.3193C11.6411 43.3329 12.3089 43.3363 12.9749 43.3193C13.4987 43.3057 13.7048 43.5244 13.7012 44.0127C13.6886 45.7296 13.6958 47.4456 13.6958 49.1625L13.6967 49.1633Z" fill="#D1D1D1"/>
<path d="M40.2734 27.1153C40.2734 25.6095 40.2815 24.1044 40.2554 22.5986C40.2482 22.1732 40.4192 22.0711 40.8395 22.0728C44.0615 22.0858 47.2838 22.0858 50.5063 22.0728C50.9302 22.0728 51.0814 22.1766 51.0805 22.6003C51.0661 27.2923 51.0715 31.9844 51.0688 36.6756C51.0688 36.8278 51.112 36.9946 50.9734 37.1222C50.8465 37.3145 50.7106 37.2762 50.5234 37.1758C50.3841 37.0945 50.2567 36.9961 50.1446 36.8831C46.946 33.8589 43.7477 30.8324 40.5497 27.8036C40.3508 27.6139 40.1114 27.4361 40.2734 27.1153Z" fill="#D1D1D1"/>
<path d="M28.6069 21.2301C30.1431 21.2301 31.6794 21.2301 33.2157 21.2412C33.8709 21.2412 33.9627 21.3263 33.9636 21.9397C33.969 24.8791 33.9636 27.8194 33.9708 30.7589C33.9708 31.2438 33.7836 31.4531 33.2508 31.4523C28.1419 31.4392 23.0329 31.4335 17.924 31.4352C17.93 31.2548 17.98 31.0781 18.0701 30.9189C18.1601 30.7597 18.2878 30.6222 18.4432 30.5172C21.2932 27.8135 24.1486 25.1148 27.0094 22.4212C27.364 22.0877 27.7123 21.7483 28.0714 21.4199C28.2199 21.2837 28.3684 21.1502 28.6033 21.2301" fill="#D1D1D1"/>
<path d="M41.1833 16.0824C41.1734 13.6645 41.1554 11.2474 41.1572 8.82949C41.1572 7.88513 41.0987 6.93821 41.1968 5.99469C41.3453 5.88494 41.519 5.94025 41.6792 5.9394C46.682 5.93599 51.685 5.93599 56.6884 5.9394C56.8621 5.9394 57.1222 5.83985 57.1942 6.02447C57.2662 6.20909 57.1096 6.39031 56.9962 6.56046C56.8802 6.71615 56.7458 6.85886 56.5957 6.98585C53.5357 9.88758 50.4718 12.7876 47.4041 15.6859C47.2537 15.853 47.0632 15.9837 46.8486 16.0672C46.634 16.1507 46.4014 16.1844 46.1702 16.1658C44.6915 16.0934 43.2065 16.1436 41.7242 16.1385C41.5442 16.1385 41.3543 16.1938 41.1842 16.0866" fill="#D1D1D1"/>
<path d="M58.7125 43.0086C60.5727 42.9885 62.4163 43.3417 64.1214 44.0449C64.6092 44.2227 64.7991 44.4745 64.6101 44.9671C64.44 45.4112 64.3248 45.8741 64.179 46.3284C63.909 47.1502 63.3735 47.2846 62.7084 46.7069C62.0805 46.1187 61.3219 45.6699 60.4876 45.3933C59.6534 45.1166 58.7645 45.019 57.8854 45.1075C57.0456 45.1494 56.2291 45.3835 55.5061 45.7895C54.7831 46.1956 54.1752 46.7615 53.7346 47.4386C52.8725 48.7 52.3897 50.1594 52.3378 51.6603C52.286 53.1613 52.6671 54.6473 53.4403 55.9592C54.0988 57.1379 55.1984 58.0424 56.5243 58.496C57.8503 58.9497 59.3074 58.92 60.6115 58.4128C61.7816 58.0093 62.8601 57.3992 63.7894 56.6151C63.9334 56.4952 64.0945 56.2697 64.2979 56.3718C64.5013 56.4739 64.377 56.7215 64.3608 56.9044C64.3095 57.5 64.2339 58.0904 64.1988 58.6842C64.2017 58.8685 64.1496 59.0497 64.0485 59.2073C63.9474 59.3648 63.8015 59.4922 63.6273 59.575C61.7369 60.5341 59.6011 60.976 57.4597 60.8512C56.2704 60.8188 55.097 60.5842 53.9956 60.1586C52.8802 59.7365 51.8795 59.0823 51.068 58.2448C50.2564 57.4072 49.6547 56.4076 49.3076 55.3203C48.5934 53.3107 48.5357 51.1445 49.142 49.1036C49.707 47.3535 50.8477 45.8193 52.3982 44.724C53.9487 43.6287 55.8283 43.0293 57.7639 43.0129C58.0789 43.0052 58.3939 43.0129 58.7089 43.0129" fill="#D1D1D1"/>
<path d="M17.8178 26.599C17.8133 23.3448 17.8178 20.0905 17.798 16.8363C17.798 16.3318 18.0257 16.1599 18.5351 16.1616C21.6628 16.1724 24.7906 16.175 27.9184 16.1693C28.3189 16.1693 28.6276 16.2501 28.5862 16.7197C28.4319 17.0834 28.1943 17.4103 27.8905 17.6769C27.0738 18.5138 26.2123 19.3106 25.3093 20.0642C24.8818 20.4045 24.5893 20.8613 24.1798 21.2221C22.2781 22.9134 20.4952 24.7188 18.6314 26.4467C18.4145 26.6483 18.1814 26.9869 17.8214 26.5981" fill="#D1D1D1"/>
<path d="M37.4907 63.9427H9.9662C9.725 63.9427 9.4838 63.9427 9.2462 63.9274C8.9483 63.9087 8.8322 63.73 8.8313 63.4663C8.8304 63.2025 8.9321 63.0187 9.2336 62.994C9.4136 62.9787 9.6035 62.9771 9.7889 62.9771H65.1142C65.2995 62.9771 65.485 62.977 65.6695 62.9932C65.9655 63.0145 66.0844 63.1872 66.0853 63.4535C66.0862 63.7198 65.9818 63.9018 65.6821 63.9231C65.4427 63.941 65.2006 63.9418 64.9621 63.9418H37.4907" fill="#D1D1D1"/>
<path d="M17.8177 26.599C18.3452 26.3781 18.8016 26.0294 19.1407 25.5883C20.731 24.0254 22.3888 22.5255 24.0061 20.9941C25.519 19.5562 27.0202 18.1091 28.5861 16.7231C28.5933 18.2262 28.6002 19.7292 28.6068 21.2323C28.3953 21.4509 28.1919 21.6781 27.9705 21.8874C24.8236 24.8662 21.6757 27.844 18.5269 30.8206C18.3181 31.0179 18.1273 31.2315 17.9275 31.4374C17.8315 31.2674 17.7896 31.0747 17.8069 30.8827C17.8069 29.4556 17.8105 28.0286 17.8177 26.6015" fill="#D1D1D1"/>
<path d="M40.2636 6.82905C40.287 7.94953 40.3131 9.07 40.2456 10.1905C40.1295 10.2977 39.9873 10.2322 39.8568 10.2432C39.1967 9.81976 38.5969 9.31795 38.0721 8.75011C35.3859 6.21082 32.7 3.67124 30.0144 1.13138C29.8569 0.982496 29.6949 0.837863 29.5527 0.676215C29.2683 0.350367 29.298 0.256781 29.739 0.0483398H32.853C33.2649 0.10432 33.6412 0.299595 33.9123 0.597943C35.868 2.42627 37.8021 4.27416 39.7551 6.10419C39.9389 6.33654 40.1087 6.57855 40.2636 6.82905Z" fill="#D1D1D1"/>
<path d="M41.1833 16.0823C42.7385 16.0823 44.2937 16.0696 45.8489 16.0823C46.0787 16.0915 46.3078 16.0535 46.5206 15.9712C46.7334 15.8888 46.9249 15.7639 47.0819 15.605C50.2673 12.5768 53.4593 9.55487 56.6578 6.53914C56.7838 6.41919 57.0241 6.30603 56.9602 6.13247C56.8783 5.91042 56.6002 6.00826 56.4202 6.00741C51.3473 5.99833 46.2743 5.99294 41.2013 5.99124C41.4082 5.91165 41.634 5.88637 41.8547 5.91808C46.7477 5.91808 51.641 5.91808 56.5345 5.91808C57.3211 5.91808 57.3256 5.91807 57.3229 6.67272C57.3229 7.39077 57.3085 8.10883 57.3004 8.82689C56.8496 9.39379 56.3444 9.92011 55.7911 10.3991C54.2683 11.8786 52.7059 13.3207 51.1859 14.8036C50.0033 15.9573 48.7775 17.0743 47.5751 18.2118C47.342 18.3982 47.159 18.6342 47.041 18.9004C46.923 19.1666 46.8735 19.4554 46.8965 19.7432C46.9244 20.0385 46.8965 20.3388 46.9037 20.6357C46.9179 20.7488 46.8995 20.8634 46.8504 20.9673C46.8013 21.0713 46.7233 21.1607 46.6247 21.2262C46.4663 21.0424 46.5347 20.8237 46.5293 20.6204C46.5248 19.3442 46.5086 18.0681 46.541 16.7919C46.5536 16.3001 46.3673 16.1674 45.8705 16.1768C44.5205 16.2031 43.1705 16.1887 41.8206 16.1819C41.6073 16.1819 41.3706 16.2482 41.1843 16.0849" fill="#D1D1D1"/>
<path d="M46.6248 21.2244C46.6248 20.5239 46.6272 19.8234 46.632 19.1229C46.6243 18.9922 46.6458 18.8615 46.6949 18.7391C46.744 18.6168 46.8198 18.5055 46.9172 18.4125C48.6695 16.7561 50.4101 15.0885 52.1606 13.4304C53.6498 12.0186 55.1426 10.6106 56.639 9.20625C56.8206 9.02993 57.0472 8.90073 57.2969 8.83105C57.2969 9.77769 57.2969 10.724 57.2969 11.6701C55.991 13.1505 54.5321 14.4947 53.0966 15.8576C51.7466 17.1432 50.366 18.41 49.0313 19.7117C48.4684 20.2748 47.8484 20.7844 47.1801 21.2329L46.6248 21.2244Z" fill="#D1D1D1"/>
<path d="M57.2959 14.088C57.3031 16.3443 57.3076 18.5972 57.322 20.856C57.322 21.1469 57.2059 21.2584 56.8981 21.2567C54.5113 21.2439 52.1281 21.2397 49.7386 21.232C49.4254 21.0321 49.5946 20.8585 49.7701 20.6833C50.3794 20.0724 51.0184 19.4922 51.6466 18.8966C53.3098 17.3278 54.9577 15.7487 56.6371 14.1935C56.8171 14.0234 57.0079 13.7316 57.2959 14.088Z" fill="#D1D1D1"/>
<path d="M33.0708 0.11583H29.6139C29.5278 0.206659 29.4203 0.277081 29.3 0.321415C29.1798 0.36575 29.0503 0.382757 28.9218 0.371064C28.4961 0.360004 28.0704 0.364258 27.6447 0.371064C27.5007 0.371064 27.3108 0.327674 27.237 0.468904C27.147 0.63906 27.3207 0.764124 27.4341 0.866218C28.236 1.59193 28.9731 2.3789 29.7957 3.0825C30.1404 3.37687 30.4608 3.6857 30.7767 4.00644C32.151 5.40087 33.6252 6.70171 35.0751 8.02467C35.5152 8.42624 35.8968 8.87545 36.3162 9.30084C36.5266 9.52122 36.7866 9.69423 37.0771 9.80715C37.3675 9.92007 37.6811 9.97004 37.9946 9.95339C38.5857 9.85266 39.1947 9.90983 39.7532 10.1184C39.7856 10.1355 39.8144 10.1576 39.8432 10.1771L40.2428 10.1993C39.7714 10.2888 39.2883 10.3103 38.81 10.2631C37.7363 10.2741 36.6609 10.2852 35.5881 10.2495C35.0481 10.2307 34.8861 10.4196 34.8987 10.9131C34.9293 12.1382 34.9104 13.3642 34.9059 14.5901C34.9352 14.8167 34.9122 15.0466 34.8384 15.264C34.7258 15.1725 34.6402 15.0552 34.5897 14.9233C34.5392 14.7913 34.5257 14.6493 34.5504 14.511C34.5504 13.4424 34.5396 12.3739 34.5549 11.3053C34.5651 11.008 34.5081 10.7121 34.3875 10.4374C34.2668 10.1628 34.0855 9.91563 33.8556 9.71262C30.9156 6.94305 27.9798 4.16951 25.0482 1.392C24.9719 1.31551 24.8895 1.24469 24.8016 1.18016C24.6216 1.05339 24.4912 1.08061 24.4471 1.30267C24.427 1.44162 24.4206 1.58204 24.4282 1.7221C24.4282 5.73381 24.4282 9.74523 24.4282 13.7564C24.4282 13.8789 24.4282 14.0014 24.4354 14.1239C24.4786 14.756 24.6856 14.9475 25.3704 14.9832C25.5927 14.9951 25.815 14.99 26.0373 14.99H33.987C34.3056 14.99 34.6242 14.9764 34.8393 15.2614C34.6593 15.4009 34.4505 15.3516 34.2525 15.3516C31.0854 15.3516 27.9183 15.3422 24.7512 15.3652C24.1897 15.3652 24.0312 15.2163 24.0312 14.6846C24.0516 10.0274 24.0516 5.37024 24.0312 0.713077C24.0312 0.20261 24.1519 0.00948289 24.7351 0.0111845C29.7165 0.0264985 34.6989 0.0111845 39.6803 0.0111845C39.8747 0.0111845 40.0916 -0.0500717 40.2581 0.114129C40.1896 0.19842 40.1 0.265423 39.9975 0.309201C39.895 0.352979 39.7827 0.372182 39.6704 0.365109C37.7463 0.382975 35.8221 0.365109 33.8979 0.365109C33.6042 0.348332 33.3192 0.264552 33.0672 0.120935" fill="#D1D1D1"/>
<path d="M33.0718 0.117631L40.2627 0.107422V6.82858C40.089 6.73195 39.9243 6.62152 39.7704 6.49848C37.6146 4.46852 35.463 2.43515 33.3157 0.398388C33.2288 0.308191 33.1468 0.213918 33.0699 0.11593" fill="#D1D1D1"/>
<path d="M40.2734 27.1143C40.4462 27.2963 40.6109 27.4869 40.7936 27.6605C43.9376 30.6365 47.0834 33.6111 50.231 36.5843C50.432 36.8151 50.6863 36.9994 50.9743 37.1228C51.0463 37.3857 50.8753 37.413 50.6665 37.413C45.5408 37.413 40.4153 37.4152 35.2902 37.4198C34.995 37.4198 34.8447 37.3185 34.8456 37.0233C34.851 33.8397 34.8549 30.656 34.8573 27.4724C34.8718 27.388 34.9 27.3062 34.941 27.23C35.0474 27.3171 35.1286 27.4284 35.1768 27.5535C35.225 27.6786 35.2386 27.8132 35.2164 27.9446C35.1727 28.2961 35.1758 28.6514 35.2254 29.0021C35.2155 31.1401 35.22 33.2773 35.2209 35.4153C35.2209 35.6603 35.2137 35.9062 35.2362 36.1512C35.292 36.7672 35.5269 36.9927 36.1686 37.0488C36.4089 37.0701 36.6501 37.0641 36.8886 37.0641C39.0941 37.0641 41.2997 37.0641 43.5053 37.0641C43.9013 37.0641 44.2946 37.0871 44.6888 37.1016C45.5375 37.0216 46.3898 37.0879 47.2394 37.0667C47.4059 37.0667 47.5733 37.0726 47.7389 37.0531C48.0746 37.0131 48.1763 36.8667 47.9405 36.6047C47.7371 36.3784 47.5103 36.1708 47.288 35.9598C46.118 34.8436 44.9579 33.7069 43.778 32.6035C42.0779 31.0193 40.3922 29.4216 38.6895 27.8391C38.5615 27.7244 38.4105 27.6352 38.2454 27.5768C38.0803 27.5183 37.9044 27.4918 37.7283 27.4988C37.0251 27.4909 36.3216 27.4909 35.6178 27.4988C35.4901 27.513 35.3607 27.4958 35.242 27.449C35.1233 27.4022 35.0193 27.3274 34.9401 27.2317C36.3882 27.1023 37.8399 27.2087 39.2897 27.1798C39.6194 27.2107 39.9522 27.1892 40.2743 27.116" fill="#D1D1D1"/>
<path d="M57.2959 14.0883C57.0425 14.1976 56.8176 14.3582 56.6371 14.5588L50.2364 20.6104C50.0242 20.7809 49.8543 20.9935 49.7387 21.2331H48.2933C47.9999 20.8835 48.3167 20.6869 48.5246 20.4878C49.5746 19.4788 50.6321 18.4766 51.6971 17.4812C53.0624 16.205 54.3808 14.8804 55.7749 13.6306C56.0773 13.278 56.4158 12.9545 56.7856 12.6649C56.998 12.5373 57.1456 12.5229 57.2959 12.7211V14.0883Z" fill="#D1D1D1"/>
<path d="M57.2977 12.721C57.041 12.8232 56.8091 12.974 56.6164 13.1643C54.0479 15.6083 51.4793 18.0523 48.9107 20.4963C48.6633 20.7078 48.455 20.9568 48.2942 21.233H47.1809C47.2633 20.9618 47.4305 20.7204 47.6606 20.5405C49.1969 19.3001 50.474 17.8112 51.9518 16.5163C53.5718 15.0998 55.0118 13.5241 56.5939 12.077C56.7877 11.8872 57.0292 11.7469 57.2959 11.6694V12.721" fill="#D1D1D1"/>
<path d="M39.8487 10.1717C39.4234 10.156 38.9975 10.1656 38.5734 10.2006C38.0287 10.278 37.4719 10.2153 36.9617 10.019C36.4514 9.82277 36.0065 9.50022 35.6736 9.08527C34.1941 7.55387 32.5543 6.15604 31.0405 4.65101C29.677 3.29572 28.1605 2.08251 26.878 0.657454C26.7646 0.531539 26.5324 0.408176 26.6188 0.232064C26.7178 0.0278772 26.9788 0.115507 27.1759 0.114657C27.9859 0.108701 28.804 0.114657 29.6185 0.120612C29.6984 0.42763 29.8894 0.698529 30.1585 0.886314L39.2538 9.48599C39.4922 9.67892 39.6937 9.90915 39.8496 10.1666" fill="#D1D1D1"/>
<path d="M34.842 15.2518L25.1725 15.239C24.196 15.239 24.1573 15.2033 24.1573 14.3031C24.1573 9.89044 24.1573 5.47745 24.1573 1.06417C24.1573 0.979091 24.1519 0.888909 24.1573 0.801278C24.1699 0.666855 24.1114 0.489893 24.2671 0.419278C24.4228 0.348664 24.5299 0.509461 24.6271 0.602196C27.9037 3.6962 31.1797 6.79048 34.455 9.88505C34.5829 10.0113 34.6812 10.1617 34.7432 10.3263C34.8053 10.491 34.8297 10.6662 34.815 10.8405C34.815 12.3115 34.8312 13.7816 34.8411 15.2526" fill="#D1D1D1"/>
<path d="M44.8257 37.3152C41.8407 37.3152 38.856 37.3172 35.8717 37.3212C35.023 37.3212 34.9501 37.2522 34.9501 36.45C34.9501 33.6282 34.9522 30.8068 34.9564 27.9856C34.9909 27.9454 35.0347 27.9132 35.0844 27.8914C35.1341 27.8696 35.1884 27.8589 35.2432 27.8599C35.2979 27.861 35.3517 27.8739 35.4004 27.8976C35.4491 27.9212 35.4915 27.9551 35.5243 27.9966C35.7043 28.1489 35.8843 28.3012 36.0436 28.4688C37.138 29.6063 38.3007 30.6808 39.4563 31.7613C41.1405 33.3313 42.8205 34.9052 44.4963 36.4831C44.7222 36.6958 45.1848 36.8754 44.823 37.3152" fill="#D1D1D1"/>
<path d="M44.8256 37.3162C44.5484 36.7334 43.9634 36.4101 43.5224 35.9685C42.2273 34.6711 40.862 33.4392 39.5004 32.203C38.2071 31.0289 36.9903 29.7791 35.7384 28.5642C35.5216 28.3232 35.2552 28.1263 34.9554 27.9857C34.9506 27.7338 34.9461 27.482 34.9419 27.2302C35.9598 27.2302 36.9777 27.2412 37.9956 27.2302C38.179 27.224 38.3612 27.2594 38.5272 27.3334C38.6931 27.4074 38.838 27.5179 38.9496 27.6556C39.4455 28.1967 40.0035 28.6859 40.5317 29.2006C42.0113 30.6469 43.5854 31.9954 45.0488 33.4545C46.1549 34.5605 47.3375 35.5925 48.4859 36.6585C48.6182 36.7819 48.7802 36.9078 48.7244 37.1018C48.6542 37.3442 48.4094 37.3162 48.2141 37.317C47.0855 37.3213 45.956 37.317 44.8274 37.317" fill="#D1D1D1"/>
<path d="M55.5023 75.6122C56.3123 75.5926 57.1313 75.6122 57.9458 75.6079C60.7501 75.5952 62.4151 74.1906 62.6077 71.5608C62.7706 69.3369 61.5196 67.454 58.763 67.5034C57.7271 67.5221 56.693 67.5034 55.6535 67.5034C54.8282 67.5034 54.7535 67.5783 54.7454 68.3329C54.7409 69.4007 54.7454 70.4675 54.7454 71.5352C54.7454 72.6557 54.7589 73.7753 54.74 74.895C54.731 75.4139 54.9614 75.6216 55.5032 75.6088M56.6291 68.0368C56.9072 68.0428 57.1853 68.0368 57.3959 68.0368C58.1417 67.9904 58.8897 68.0915 59.5919 68.3338C59.9493 68.461 60.2694 68.6672 60.5255 68.935C60.7816 69.2029 60.9663 69.5247 61.0642 69.8737C61.3965 70.9048 61.3763 72.0087 61.0066 73.0284C60.8586 73.5021 60.5778 73.9292 60.1941 74.2645C59.8104 74.5998 59.338 74.8309 58.8269 74.9333C58.1009 75.0804 57.3547 75.1171 56.6165 75.0422C56.5231 75.0464 56.4299 75.0309 56.3437 74.9968C56.2574 74.9628 56.1803 74.911 56.1178 74.8453C56.0553 74.7796 56.0092 74.7015 55.9825 74.6168C55.9559 74.5321 55.9496 74.4429 55.964 74.3556C55.9706 72.4634 55.9706 70.5711 55.964 68.6784C55.964 68.2411 56.1602 68.0258 56.6291 68.0368Z" fill="#D1D1D1"/>
<path d="M14.6705 73.367C14.7374 72.9269 14.6283 72.479 14.3646 72.1109C14.1008 71.7427 13.7012 71.4808 13.244 71.3762C12.9416 71.2733 12.956 71.1406 13.2152 70.9934C13.3278 70.9323 13.436 70.8644 13.5392 70.79C13.8715 70.5596 14.1219 70.2391 14.2572 69.8712C14.3925 69.5032 14.4064 69.105 14.297 68.7294C14.2032 68.4045 14.0004 68.1171 13.7189 67.9106C13.4375 67.7041 13.0927 67.5896 12.7364 67.5843C11.7592 67.4921 10.7762 67.4676 9.79524 67.5111C9.13644 67.506 9.03654 67.6141 9.03204 68.2624C9.02394 69.3684 9.03204 70.4693 9.03204 71.5727C9.03204 72.6935 9.03204 73.8145 9.03204 74.9359C9.03204 75.2489 9.06624 75.5825 9.49464 75.5859C10.5829 75.6887 11.6812 75.6443 12.7562 75.454C13.2659 75.3392 13.7246 75.0761 14.0679 74.7019C14.4111 74.3277 14.6216 73.8611 14.6696 73.3679M10.2506 69.5836C10.2506 69.3624 10.2506 69.2221 10.2506 69.0825C10.2506 68.0531 10.3838 67.9442 11.4818 68.0616C12.785 68.1977 13.2485 68.6571 13.1306 69.69C13.1094 69.9718 12.979 70.2362 12.7643 70.4327C12.6255 70.5716 12.4623 70.6868 12.2819 70.773C12.0207 70.9234 11.728 71.0181 11.4241 71.0504C11.1202 71.0827 10.8124 71.052 10.5224 70.9602C9.96173 70.6684 10.3667 69.9937 10.2524 69.5828M12.5564 74.764C11.9832 75.0646 11.3173 75.1674 10.6727 75.055C10.3775 75.0278 10.2713 74.8244 10.2659 74.5726C10.2578 74.1523 10.2659 73.7312 10.2659 73.3109H10.2605C10.2605 72.9425 10.2605 72.575 10.2605 72.2049C10.2542 71.7846 10.4747 71.6034 10.9112 71.6051C11.319 71.5995 11.7259 71.6418 12.1226 71.731C12.4657 71.7817 12.7807 71.9402 13.0167 72.1811C13.2527 72.4219 13.3959 72.7309 13.4231 73.0582C13.4729 73.3907 13.4175 73.7297 13.2639 74.0325C13.1104 74.3353 12.8654 74.5883 12.56 74.7598" fill="#D1D1D1"/>
<path d="M22.8181 74.9512C22.8181 75.3477 22.8505 75.6957 23.4157 75.7016C23.9809 75.7076 24.0394 75.3835 24.0376 74.9742C24.0331 74.1167 24.0331 73.2582 24.043 72.4006C24.043 72.1845 23.98 71.8995 24.2824 71.8178C24.5425 71.7472 24.664 71.988 24.7999 72.1454C25.6585 73.1331 26.4909 74.1396 27.273 75.1827C27.4347 75.4081 27.6683 75.5788 27.9399 75.6697C28.2114 75.7606 28.5066 75.7671 28.7823 75.688C28.9983 75.6285 29.0595 75.523 28.9362 75.3477C28.8462 75.2158 28.7418 75.0925 28.6383 74.9683C27.8337 74.0069 27.0399 73.0387 26.2173 72.0909C25.9005 71.7259 25.978 71.5702 26.4351 71.4545C26.7212 71.379 26.9941 71.2644 27.2451 71.1142C27.6631 70.8945 27.9892 70.5464 28.1692 70.1275C28.3493 69.7087 28.3725 69.2442 28.2351 68.8112C28.0254 67.9493 27.3171 67.6796 26.5044 67.5716C25.5265 67.4898 24.5439 67.4708 23.5633 67.5146C22.9333 67.5146 22.8262 67.6218 22.8208 68.2318C22.8118 69.3522 22.8208 70.4728 22.8208 71.5932C22.8208 72.7137 22.8208 73.8342 22.8208 74.9547M24.0511 68.561C24.0439 68.4907 24.0534 68.4198 24.0789 68.3534C24.1045 68.287 24.1454 68.2269 24.1988 68.1773C24.2521 68.1278 24.3164 68.0902 24.3871 68.0673C24.4578 68.0443 24.533 68.0366 24.6073 68.0446C25.0687 68.0152 25.5321 68.0577 25.9788 68.1705C26.2729 68.2222 26.5414 68.3625 26.744 68.5705C26.9467 68.7785 27.0726 69.0429 27.1029 69.3242C27.1436 69.6132 27.0937 69.9071 26.9593 70.1695C26.8249 70.4319 26.612 70.6513 26.3469 70.8003C25.8063 71.1149 25.1696 71.2488 24.5389 71.1806C24.4735 71.1829 24.4084 71.1722 24.3477 71.1492C24.287 71.1261 24.2321 71.0913 24.1865 71.047C24.141 71.0026 24.1058 70.9497 24.0832 70.8917C24.0607 70.8337 24.0512 70.7718 24.0556 70.7101C24.0457 70.3434 24.0556 69.9768 24.0556 69.6101C24.0556 69.2604 24.0556 68.9115 24.0556 68.5619" fill="#D1D1D1"/>
<path d="M7.07628 78.0486C7.04118 77.7934 7.11318 77.4123 6.71629 77.368C6.34909 77.3255 6.26629 77.6837 6.13219 77.9193C5.5022 79.0109 4.8911 80.1126 4.25571 81.2008C3.96951 81.6908 3.85701 81.6874 3.57801 81.1872C2.93902 80.0403 2.31802 78.885 1.68803 77.7347C1.57643 77.5305 1.45223 77.3093 1.15703 77.3476C0.846534 77.3876 0.828534 77.6411 0.797034 77.8683C0.534836 79.6725 0.273838 81.477 0.0140403 83.2818C-0.0219594 83.5277 -0.0111595 83.754 0.323638 83.7923C0.643135 83.8263 0.928433 83.7846 0.999532 83.4162C1.02293 83.2963 1.02473 83.1721 1.04093 83.0504C1.17233 82.0465 1.17773 81.0281 1.40903 79.9927C1.69973 80.0778 1.74473 80.2598 1.82483 80.4096C2.30902 81.3165 2.78332 82.2285 3.26481 83.1321C3.36921 83.3286 3.41061 83.6102 3.70761 83.617C4.03161 83.6247 4.11261 83.3362 4.20891 83.1201C4.6364 82.1664 5.1944 81.2757 5.69029 80.356C5.77579 80.1977 5.82439 79.9935 6.08629 79.9221C6.11059 80.0701 6.13579 80.1875 6.14839 80.3066C6.25729 81.2995 6.37249 82.2915 6.46879 83.2844C6.52009 83.8161 6.90168 83.8203 7.31298 83.7948C7.75578 83.7659 7.78548 83.4894 7.74228 83.1567C7.51998 81.4552 7.31028 79.7485 7.07898 78.047" fill="#D1D1D1"/>
<path d="M52.0022 67.5563C51.7484 67.5631 51.6638 67.7452 51.6422 67.9528C51.626 68.123 51.6251 68.3025 51.6242 68.4777C51.6242 69.9147 51.6242 71.3508 51.6179 72.7878C51.6179 72.969 51.7079 73.2276 51.4748 73.3042C51.2858 73.3671 51.1715 73.134 51.0509 73.0141C49.3709 71.3085 47.6966 69.6004 46.028 67.8898C45.8363 67.6941 45.6456 67.4644 45.3261 67.581C45.0066 67.6976 45.0687 67.98 45.0669 68.2182C45.0606 69.3395 45.0669 70.4609 45.0669 71.5822C45.0669 72.7384 45.0669 73.8946 45.0669 75.0508C45.0669 75.306 45.0453 75.6413 45.4332 75.6464C45.8643 75.6566 45.8184 75.306 45.8391 75.0287C45.8481 74.907 45.8391 74.7837 45.8391 74.6612C45.8391 73.0847 45.8391 71.5073 45.8436 69.9308C45.8436 69.7828 45.7787 69.5786 45.9695 69.5054C46.1288 69.4467 46.2251 69.616 46.3196 69.7156C48.0104 71.5045 49.7 73.2943 51.3884 75.0849C51.5291 75.2476 51.6871 75.3961 51.86 75.5281C52.1237 75.7111 52.3163 75.6294 52.3757 75.324C52.3974 75.1854 52.4058 75.0453 52.4009 74.9054C52.4009 72.7155 52.4009 70.5253 52.4009 68.3348C52.4009 68.2123 52.4009 68.0889 52.3865 67.9672C52.3631 67.7392 52.2803 67.5419 51.9932 67.5495" fill="#D1D1D1"/>
<path d="M16.7765 77.3002C15.9071 77.2696 15.0359 77.3003 14.1665 77.2883C13.6715 77.2807 13.46 77.49 13.4663 77.9536C13.478 78.8112 13.4663 79.6688 13.4663 80.5273C13.4663 81.4027 13.4726 82.2782 13.4663 83.1528C13.4663 83.5782 13.6382 83.8138 14.1179 83.807C14.8217 83.7968 15.5264 83.8215 16.2284 83.7891C16.7428 83.7918 17.2512 83.6851 17.716 83.4767C18.1808 83.2684 18.59 82.9639 18.9134 82.5858C19.2368 82.2076 19.466 81.7655 19.584 81.2922C19.702 80.8189 19.7059 80.3266 19.5953 79.8517C19.5944 79.5072 19.5199 79.1663 19.3764 78.8496C19.2328 78.5329 19.0231 78.2468 18.7599 78.0085C18.4966 77.7702 18.1852 77.5846 17.8442 77.4627C17.5033 77.3409 17.1398 77.2853 16.7756 77.2994M18.2588 80.5596C18.2372 82.3249 17.1653 83.2208 15.2888 83.0643C14.8721 83.0294 14.6912 82.8473 14.6939 82.4636C14.6939 81.8162 14.6939 81.1679 14.6939 80.5205C14.6939 79.89 14.6939 79.2596 14.6939 78.63C14.6787 78.547 14.6851 78.4617 14.7123 78.3814C14.7396 78.3012 14.787 78.2284 14.8505 78.1692C14.9139 78.11 14.9916 78.0662 15.0769 78.0416C15.1622 78.017 15.2525 78.0122 15.3401 78.0277C15.6731 78.0362 16.0088 78.0191 16.3391 78.0532C16.6004 78.0559 16.8584 78.1086 17.0977 78.2081C17.3369 78.3076 17.5523 78.4518 17.731 78.6321C17.9097 78.8124 18.0479 79.025 18.1374 79.2571C18.2268 79.4892 18.2657 79.7361 18.2516 79.9828C18.2606 80.175 18.2597 80.3682 18.257 80.5604" fill="#D1D1D1"/>
<path d="M74.8431 83.373C74.3469 82.7843 73.8568 82.191 73.3726 81.5932C72.7426 80.8215 72.7426 80.8139 73.5859 80.2719C73.8941 80.071 74.1273 79.7831 74.2522 79.4495C74.3771 79.1158 74.3874 78.7533 74.2816 78.4138C74.1511 77.7187 73.5931 77.4686 72.9316 77.3503C72.4727 77.2914 72.0092 77.2712 71.5465 77.29C71.2135 77.29 70.8796 77.2976 70.5466 77.29C70.0777 77.2755 69.8752 77.4848 69.877 77.9238C69.8836 79.6741 69.8836 81.4248 69.877 83.1757C69.877 83.5713 70.0237 83.8078 70.4899 83.8061C70.9561 83.8044 71.101 83.5619 71.0992 83.1697C71.0992 82.5917 71.1022 82.0141 71.1082 81.4367C71.1082 81.3031 71.0668 81.1202 71.236 81.0649C71.4052 81.0096 71.4934 81.1789 71.578 81.2827C72.0748 81.8927 72.6094 82.4814 73.0405 83.1314C73.2007 83.3873 73.4408 83.5901 73.7278 83.712C74.0147 83.8338 74.3345 83.8688 74.6433 83.812C75.06 83.7789 75.0789 83.6521 74.8423 83.3713M72.3088 79.9486C72.1867 79.9885 72.0615 80.0195 71.9344 80.0414C71.2936 80.1596 71.1325 80.0414 71.1064 79.422C71.101 79.3003 71.1064 79.1778 71.1064 79.0562C71.1053 79.0389 71.1053 79.0216 71.1064 79.0043C71.1577 78.6214 70.9381 78.1084 71.6293 78.0344C71.9208 77.9799 72.2234 78.023 72.485 78.1564C72.7466 78.2897 72.9509 78.505 73.063 78.7652C73.1192 79.0157 73.0729 79.277 72.9337 79.4967C72.7945 79.7164 72.5725 79.8781 72.3123 79.9495" fill="#D1D1D1"/>
<path d="M58.7458 80.5603C58.7458 79.7019 58.7458 78.8426 58.7458 77.9842C58.7458 77.6583 58.7368 77.3146 58.2553 77.312C57.7738 77.3095 57.7585 77.6524 57.7567 77.9774C57.7513 78.9762 57.7567 79.975 57.7495 80.9738C57.7495 81.1099 57.7963 81.2988 57.6595 81.3635C57.4534 81.4587 57.3895 81.2316 57.2869 81.1261C56.188 79.9878 55.0963 78.8434 53.9983 77.7034C53.7994 77.4967 53.5888 77.244 53.2504 77.3546C52.8841 77.4737 52.9696 77.8123 52.9651 78.0812C52.9534 78.8698 52.9597 79.6585 52.9606 80.4472C52.9606 81.3762 52.9606 82.3044 52.9687 83.2335C52.9687 83.4479 53.0011 83.6648 53.2576 83.7533C53.3348 83.7857 53.4209 83.7941 53.5035 83.7775C53.5861 83.7608 53.661 83.7199 53.7175 83.6606C53.8376 83.5021 53.8871 83.3053 53.8552 83.1127C53.8552 82.0441 53.8552 80.9747 53.8642 79.9052C53.8642 79.7606 53.7967 79.5496 54.0073 79.4994C54.1666 79.4611 54.2404 79.6449 54.3358 79.747C55.4878 80.9817 56.6392 82.2171 57.79 83.453C57.9655 83.6401 58.1626 83.8299 58.4533 83.7516C58.7791 83.6665 58.7467 83.3781 58.7485 83.1382C58.7548 82.2797 58.7485 81.4204 58.7485 80.562" fill="#D1D1D1"/>
<path d="M0.148238 72.9603C0.127874 73.4286 0.241421 73.8934 0.476931 74.3059C0.712441 74.7184 1.06121 75.0633 1.48653 75.3042C2.47219 75.8156 3.62389 75.9621 4.7175 75.7151C5.47369 75.6265 6.16911 75.2784 6.67167 74.737C7.17423 74.1955 7.44893 73.4985 7.44358 72.7782C7.50028 71.2212 7.46248 69.6609 7.45888 68.0989C7.45888 67.8505 7.43818 67.5587 7.08448 67.557C6.69479 67.557 6.68939 67.8692 6.68669 68.1329C6.67679 68.9038 6.68669 69.6745 6.67769 70.4445C6.72595 71.3368 6.68315 72.2314 6.54989 73.116C6.46009 73.732 6.11904 74.2904 5.59959 74.6719C5.08013 75.0534 4.42344 75.2279 3.76981 75.1578C3.43721 75.1658 3.10656 75.1073 2.79949 74.9863C2.49241 74.8652 2.2158 74.6843 1.98774 74.4553C1.75968 74.2263 1.58529 73.9544 1.47597 73.6574C1.36665 73.3603 1.32486 73.0447 1.35333 72.7314C1.33173 71.9963 1.35333 71.2604 1.35333 70.5245H1.33983C1.33983 69.7191 1.33983 68.9134 1.33983 68.1074C1.33983 67.7348 1.19043 67.5118 0.754833 67.505C0.297637 67.4982 0.124838 67.7152 0.124838 68.1202C0.130238 69.7315 0.0942381 71.3438 0.145538 72.9535" fill="#D1D1D1"/>
<path d="M70.5915 72.4542C70.8314 72.4656 71.0717 72.4656 71.3115 72.4542C71.5599 72.4103 71.8166 72.4601 72.0264 72.5931C72.2363 72.7261 72.3825 72.9316 72.4338 73.1655C72.666 73.8112 72.9883 74.428 73.2079 75.0772C73.2608 75.2914 73.4001 75.4776 73.5961 75.5961C73.7921 75.7147 74.0293 75.7562 74.2572 75.7119C74.6811 75.6906 74.8341 75.5766 74.646 75.1631C73.5381 72.7358 72.4446 70.3035 71.3394 67.8753C71.2494 67.678 71.2062 67.3938 70.8894 67.4082C70.6266 67.421 70.5564 67.6635 70.4673 67.8524C70.0002 68.8248 69.5422 69.8006 69.0841 70.7765C68.4079 72.216 67.7338 73.6567 67.0618 75.0984C66.9772 75.2814 66.8287 75.5196 67.123 75.6447C67.185 75.6763 67.2531 75.6958 67.3233 75.702C67.3935 75.7082 67.4643 75.701 67.5314 75.6809C67.5986 75.6607 67.6608 75.628 67.7143 75.5846C67.7678 75.5413 67.8116 75.4882 67.843 75.4285C67.9102 75.3039 67.9661 75.1741 68.0104 75.0406C68.1724 74.6305 68.32 74.2154 68.4955 73.8104C69.1399 72.3258 68.8258 72.4678 70.588 72.4576M69.8184 70.7875C69.9864 70.3996 70.1587 70.0133 70.3351 69.6288C70.3846 69.5216 70.4251 69.3736 70.5862 69.3863C70.7104 69.394 70.7608 69.5097 70.8058 69.6033C71.1004 70.2272 71.392 70.8511 71.6806 71.475C71.8183 71.7728 71.6806 71.9046 71.3656 71.9148C71.1262 71.9225 70.8858 71.9148 70.6455 71.9148C69.3433 71.9225 69.3343 71.9148 69.8194 70.7901" fill="#D1D1D1"/>
<path d="M42.9446 75.7025C43.6295 75.7119 43.724 75.5774 43.4729 75.0159C43.1849 74.371 42.8897 73.7287 42.5981 73.0847C41.8049 71.3298 41.0111 69.5752 40.2167 67.8209C40.1312 67.6337 40.0547 67.3955 39.7802 67.4015C39.5327 67.4074 39.476 67.6346 39.3959 67.8056C38.2481 70.2354 37.1042 72.6666 35.9643 75.0993C35.8824 75.2746 35.6943 75.5187 35.9984 75.6446C36.0641 75.679 36.1365 75.7004 36.2111 75.7075C36.2858 75.7147 36.3613 75.7074 36.4329 75.6862C36.5045 75.665 36.5708 75.6302 36.6278 75.584C36.6847 75.5378 36.7312 75.4812 36.7643 75.4175C36.8114 75.3225 36.8511 75.2244 36.8831 75.124C37.1531 74.4527 37.4411 73.7882 37.6823 73.1085C37.7356 72.894 37.873 72.7066 38.0668 72.5843C38.2606 72.4619 38.4963 72.4136 38.7263 72.4491C39.2663 72.4755 39.8009 72.4696 40.3373 72.4491C40.5402 72.4215 40.7468 72.4647 40.9186 72.5705C41.0903 72.6763 41.2154 72.8376 41.2706 73.0242C41.5406 73.7312 41.8628 74.4221 42.1319 75.1299C42.2858 75.5358 42.5468 75.7365 42.9419 75.7M40.1366 71.9097C39.9152 71.9097 39.6947 71.9097 39.4733 71.9097C38.2133 71.9148 38.2133 71.9148 38.702 70.8241C38.8685 70.4557 39.0233 70.0822 39.1943 69.7181C39.2573 69.5828 39.2798 69.3778 39.4877 69.3829C39.6569 69.3829 39.6983 69.5616 39.7577 69.6841C40.0223 70.2405 40.2743 70.8012 40.5389 71.3576C40.7297 71.7591 40.5497 71.908 40.1375 71.9114" fill="#D1D1D1"/>
<path d="M21.1181 75.1852C21.1001 74.7403 20.7014 74.8644 20.4359 74.8815C19.7708 74.9257 19.1075 74.9895 18.4388 74.9734C18.0302 74.9632 17.816 74.8032 17.8178 74.4017C17.8178 73.6643 17.8178 72.9284 17.8178 72.1939C17.8041 72.115 17.8106 72.0342 17.8366 71.9582C17.8627 71.8822 17.9075 71.8131 17.9675 71.7568C18.0274 71.7004 18.1007 71.6584 18.1813 71.6343C18.2619 71.6101 18.3474 71.6045 18.4307 71.6179C18.8384 71.6247 19.2461 71.6298 19.6529 71.6409C19.895 71.6468 20.1848 71.697 20.2064 71.3686C20.228 71.0402 19.9364 70.9942 19.6664 70.9866C19.3145 70.9764 18.9617 70.9866 18.6098 70.9798C17.9276 70.9679 17.8286 70.8786 17.8169 70.2516C17.8079 69.7964 17.8088 69.3404 17.8169 68.8852C17.8277 68.2471 17.924 68.1646 18.5936 68.1416C19.2794 68.1318 19.9651 68.1676 20.6456 68.2488C20.8868 68.2726 21.1082 68.2369 21.1163 67.9434C21.1214 67.8904 21.1148 67.837 21.0969 67.7866C21.0789 67.7361 21.0501 67.6898 21.0121 67.6505C20.9742 67.6112 20.928 67.5797 20.8765 67.5582C20.825 67.5367 20.7694 67.5256 20.7131 67.5256C20.6026 67.5126 20.4914 67.5064 20.3801 67.5069C19.3793 67.5069 18.3785 67.5001 17.3777 67.5069C16.7027 67.512 16.5983 67.6082 16.5938 68.2411C16.5857 69.3471 16.5938 70.4532 16.5938 71.5532C16.5938 72.6924 16.5992 73.8308 16.5938 74.9699C16.5938 75.4106 16.7963 75.6098 17.2643 75.6064C18.3389 75.5979 19.4144 75.6064 20.4899 75.6021C20.7968 75.6021 21.1397 75.5732 21.1199 75.1835" fill="#D1D1D1"/>
<path d="M32.3409 77.5742C32.259 77.3904 32.1357 77.2339 31.891 77.2339C31.6462 77.2339 31.531 77.4083 31.4518 77.5887C30.5662 79.4961 29.6824 81.4047 28.8004 83.3144C28.6348 83.6709 28.8004 83.7985 29.1604 83.8019C29.3086 83.822 29.4596 83.7909 29.5855 83.7141C29.7113 83.6374 29.8036 83.5202 29.8453 83.3842C29.9353 83.1179 30.046 82.8575 30.1495 82.5946C30.6607 81.2946 30.6769 81.2912 32.1655 81.3891C32.3234 81.3845 32.4788 81.427 32.6097 81.5107C32.7406 81.5944 32.8402 81.715 32.8945 81.8553C33.0826 82.3122 33.2878 82.7639 33.4479 83.2293C33.5883 83.6386 33.8376 83.8538 34.2462 83.8053C34.8969 83.8113 35.0499 83.687 34.8762 83.2855C34.0401 81.3772 33.1869 79.4748 32.3364 77.5716M31.72 80.6506C31.4824 80.6089 31.1098 80.694 31.1674 80.3196C31.2214 79.9717 31.3321 79.4102 31.6597 79.4153C32.0485 79.4212 32.1097 79.9887 32.206 80.3384C32.3023 80.688 31.9359 80.6072 31.72 80.6506Z" fill="#D1D1D1"/>
<path d="M25.2841 78.1618C25.688 77.9539 26.151 77.8721 26.607 77.928C27.063 77.9839 27.4887 78.1747 27.823 78.4732C28.093 78.6722 28.2973 78.5948 28.4386 78.3081C28.6537 77.8708 28.561 77.608 28.0786 77.4412C27.7822 77.3402 27.4759 77.2675 27.1642 77.2242C24.5354 76.8516 22.6994 78.2349 22.7012 80.6665C22.6809 81.1289 22.7621 81.5904 22.9397 82.0218C23.1568 82.4488 23.4644 82.829 23.8434 83.1389C24.2224 83.4489 24.6648 83.6819 25.143 83.8235C25.6212 83.9651 26.1252 84.0123 26.6235 83.9621C27.1218 83.912 27.6039 83.7655 28.0399 83.5319C28.0887 83.5069 28.1343 83.4766 28.1758 83.4417C28.3246 83.3339 28.4286 83.1801 28.4696 83.0071C28.5105 82.8342 28.4859 82.6532 28.3999 82.4957C28.2199 82.2583 27.9895 82.6565 27.7636 82.7305C27.6802 82.7684 27.5998 82.8122 27.5233 82.8615C27.0552 83.1422 26.4925 83.2463 25.9469 83.153C25.4014 83.0597 24.9129 82.7759 24.5786 82.3578C24.1861 81.841 23.9939 81.2122 24.0341 80.5771C23.9713 80.1032 24.0562 79.6223 24.2782 79.1933C24.5003 78.7643 24.8499 78.4058 25.2841 78.1618Z" fill="#D1D1D1"/>
<path d="M46.6229 78.4821C46.9208 78.6471 47.1008 78.5901 47.2322 78.2983C47.4437 77.8295 47.3348 77.5853 46.8056 77.422C46.5409 77.34 46.2702 77.2764 45.9956 77.2314C43.3767 76.806 41.4957 78.209 41.4777 80.5767C41.5047 80.8728 41.5191 81.1722 41.5623 81.464C41.5924 81.6367 41.6429 81.8056 41.7126 81.9677C41.9218 82.4024 42.2244 82.7912 42.6011 83.1095C42.9777 83.4278 43.4203 83.6685 43.9006 83.8165C44.381 83.9645 44.8886 84.0165 45.3913 83.9692C45.8941 83.9219 46.3809 83.7763 46.8209 83.5416C46.9184 83.4907 47.0028 83.4203 47.0683 83.3352C47.1338 83.2501 47.1787 83.1524 47.1998 83.0491C47.2385 82.8483 47.3798 82.5939 47.1818 82.4535C46.9838 82.3131 46.8344 82.5786 46.6598 82.6586C46.46 82.7496 46.2746 82.8695 46.0721 82.9538C45.7717 83.0971 45.4406 83.1737 45.104 83.1775C44.7675 83.1813 44.4345 83.1123 44.1305 82.9757C43.8265 82.8392 43.5596 82.6388 43.3502 82.3897C43.1407 82.1407 42.9943 81.8496 42.9222 81.5389C42.8135 81.1848 42.7655 80.8166 42.78 80.4482C42.8898 78.2166 44.5746 77.3505 46.6157 78.4787" fill="#D1D1D1"/>
<path d="M68.3559 82.9057C67.8955 82.9452 67.4331 82.9603 66.9708 82.9509C66.2706 82.9185 66.4128 82.3791 66.4488 81.9997C66.4902 81.5598 66.1113 80.9073 66.9636 80.7737C67.2714 80.7252 67.5936 80.7618 67.905 80.7329C67.9615 80.7319 68.0171 80.7194 68.0679 80.696C68.1187 80.6727 68.1636 80.6392 68.1993 80.5978C68.235 80.5564 68.2608 80.5081 68.2748 80.4564C68.2888 80.4046 68.2906 80.3506 68.2803 80.2981C68.2799 80.2493 68.269 80.201 68.2483 80.1562C68.2275 80.1115 68.1974 80.0712 68.1597 80.0378C68.122 80.0044 68.0775 79.9785 68.0289 79.9619C67.9803 79.9452 67.9287 79.938 67.8771 79.9408C67.6365 79.9336 67.3957 79.9449 67.1571 79.9748C66.6981 80.031 66.4668 79.8753 66.4326 79.4159C66.3426 78.1967 66.4407 78.0886 67.743 78.1329C67.9095 78.1388 68.0751 78.1524 68.2407 78.1686C68.5611 78.2001 68.9112 78.2656 68.9535 77.8215C68.9994 77.3425 68.6448 77.2897 68.2623 77.2897C67.4847 77.2897 66.7062 77.3025 65.9295 77.2847C65.4075 77.2727 65.1924 77.4863 65.2014 77.9755C65.2176 78.8331 65.2059 79.6907 65.2068 80.5482C65.2068 81.4237 65.2068 82.2983 65.2068 83.1737C65.2068 83.5353 65.323 83.7982 65.7658 83.7982C66.654 83.7982 67.5432 83.8025 68.4315 83.7982C68.7861 83.7982 68.9949 83.6281 68.9616 83.275C68.9283 82.9219 68.6646 82.8888 68.3568 82.9066" fill="#D1D1D1"/>
<path d="M11.9408 82.8924C11.6456 82.9112 11.3513 82.9512 11.0561 82.9605C9.96803 82.9945 9.91583 82.946 9.91583 81.9396C9.91583 81.7124 9.91583 81.4844 9.92753 81.259C9.92236 81.1927 9.93255 81.1262 9.9574 81.0641C9.98224 81.002 10.0211 80.9457 10.0714 80.8993C10.1216 80.8529 10.1819 80.8174 10.2482 80.7953C10.3144 80.7732 10.385 80.7651 10.4549 80.7715C10.6394 80.7655 10.8248 80.7655 11.0102 80.7604C11.3396 80.751 11.6915 80.7306 11.66 80.3053C11.6312 79.9113 11.2919 79.9326 10.9868 79.9513C9.93204 80.016 9.90683 79.993 9.91673 78.978C9.91673 78.8734 9.92214 78.7679 9.92394 78.6633C9.91475 78.5928 9.92258 78.5213 9.94684 78.4541C9.9711 78.3869 10.0112 78.3258 10.064 78.2754C10.1168 78.2249 10.1811 78.1864 10.2519 78.1628C10.3227 78.1392 10.3983 78.1312 10.4729 78.1392C10.8797 78.1392 11.2829 78.1392 11.6933 78.1604C12.002 78.1758 12.317 78.2242 12.3422 77.8048C12.3665 77.4024 12.092 77.2943 11.7347 77.2943C10.9571 77.2943 10.1795 77.3046 9.40284 77.2875C8.87184 77.2756 8.67745 77.5104 8.68285 77.9903C8.69905 78.847 8.68285 79.7046 8.68285 80.5622C8.68285 81.4374 8.68285 82.3122 8.68285 83.1868C8.68285 83.4897 8.75214 83.7824 9.14274 83.7824C10.1027 83.7988 11.0648 83.7988 12.029 83.7824C12.3512 83.7756 12.461 83.545 12.4331 83.2634C12.4052 82.9818 12.2117 82.8754 11.9318 82.8924" fill="#D1D1D1"/>
<path d="M51.4613 82.892C51.2579 82.9005 51.0563 82.932 50.8538 82.9473C49.4417 83.0545 49.3976 83.0171 49.4039 81.7044C49.4039 81.5648 49.4093 81.4245 49.412 81.2849C49.404 81.2145 49.413 81.1433 49.4381 81.0766C49.4633 81.0098 49.504 80.9493 49.5572 80.8995C49.6105 80.8496 49.6749 80.8118 49.7457 80.7887C49.8165 80.7656 49.892 80.7578 49.9664 80.766C50.1887 80.766 50.411 80.7617 50.6324 80.7515C50.9186 80.7387 51.1607 80.652 51.1508 80.3312C51.14 79.9705 50.8628 79.9262 50.5604 79.9424C50.339 79.9543 50.1185 79.9875 49.8971 79.9909C49.7849 80.0002 49.6733 79.9682 49.5855 79.9016C49.4977 79.8351 49.4403 79.7391 49.4255 79.6336C49.1285 78.4961 49.4381 78.1116 50.6495 78.1311C50.816 78.1311 50.9825 78.1388 51.149 78.1532C51.4721 78.1813 51.8159 78.2383 51.8294 77.7797C51.8411 77.3705 51.545 77.2939 51.1994 77.2931C50.4218 77.2931 49.6442 77.3016 48.8675 77.2888C48.3671 77.2803 48.17 77.5015 48.1763 77.9601C48.1889 78.8177 48.1763 79.6753 48.1763 80.532C48.1763 81.4066 48.1763 82.2821 48.1763 83.1567C48.1763 83.4502 48.2114 83.7701 48.6056 83.7794C49.5848 83.8033 50.5658 83.7964 51.5459 83.7794C51.8384 83.7735 51.9437 83.5548 51.9284 83.2945C51.9323 83.2369 51.9223 83.1793 51.8993 83.126C51.8762 83.0726 51.8406 83.0249 51.7952 82.9864C51.7498 82.9479 51.6958 82.9196 51.6372 82.9037C51.5785 82.8878 51.5168 82.8847 51.4568 82.8946" fill="#D1D1D1"/>
<path d="M34.446 74.8628C33.762 74.8942 33.0789 74.9546 32.3949 74.9674C31.7109 74.9802 31.6182 74.8721 31.6137 74.2375C31.6047 73.0115 31.6137 71.7855 31.6137 70.5604C31.6137 69.7377 31.6083 68.9141 31.6083 68.0931C31.6205 68.0146 31.6131 67.9346 31.5868 67.8594C31.5605 67.7841 31.5161 67.7156 31.457 67.6593C31.3978 67.6031 31.3257 67.5607 31.2462 67.5354C31.1667 67.5102 31.0821 67.5027 30.999 67.5137C30.5292 67.5137 30.3915 67.7596 30.3933 68.151C30.3933 69.2893 30.3933 70.4277 30.3933 71.566C30.3933 72.7043 30.3933 73.8427 30.3933 74.981C30.3933 75.3826 30.558 75.6106 31.0125 75.608C32.1609 75.6029 33.3093 75.608 34.4577 75.6038C34.7583 75.6038 35.0364 75.5298 35.0265 75.1784C35.0157 74.8066 34.7052 74.8577 34.4505 74.8687" fill="#D1D1D1"/>
<path d="M64.198 77.312C62.7544 77.299 61.3109 77.299 59.8673 77.312C59.5523 77.312 59.4173 77.5239 59.438 77.814C59.4623 78.1339 59.6783 78.2198 59.978 78.1934C60.158 78.1773 60.3461 78.1517 60.5306 78.1432C61.2803 78.1075 61.4126 78.219 61.4153 78.9285C61.4216 80.3817 61.427 81.8339 61.4153 83.2871C61.4153 83.7056 61.607 83.8282 62.0246 83.8256C62.4422 83.823 62.6545 83.7269 62.6464 83.2981C62.6302 82.546 62.6419 81.7931 62.6419 81.0402C62.6419 80.5297 62.6338 80.0251 62.6419 79.5172C62.6644 78.3508 62.3647 77.9782 64.0693 78.1934C64.3663 78.2309 64.5877 78.1424 64.6147 77.8216C64.639 77.5341 64.5112 77.3172 64.1935 77.3112" fill="#D1D1D1"/>
<path d="M38.8299 82.8848C38.442 82.9052 38.0559 82.9554 37.668 82.9605C36.9381 82.9716 36.8391 82.8755 36.8364 82.1727C36.8298 80.7735 36.8298 79.3739 36.8364 77.9741C36.8364 77.5726 36.7329 77.2935 36.2226 77.2935C35.7123 77.2935 35.6079 77.5785 35.6106 77.9784C35.616 78.8351 35.6106 79.6927 35.6106 80.5494C35.6106 81.424 35.6106 82.2986 35.6106 83.1732C35.6106 83.5008 35.6917 83.7875 36.1119 83.7926C37.0362 83.8037 37.9614 83.8028 38.8866 83.7926C38.9569 83.7996 39.0279 83.7907 39.0939 83.7666C39.1598 83.7425 39.2186 83.704 39.2656 83.6541C39.3126 83.6041 39.3463 83.5444 39.364 83.4797C39.3817 83.415 39.3828 83.3473 39.3672 83.2821C39.3429 82.9682 39.1251 82.8695 38.8272 82.8856" fill="#D1D1D1"/>
<path d="M65.5292 75.0745C65.5418 73.9191 65.5292 72.7646 65.5292 71.6092C65.5292 70.4539 65.5292 69.2985 65.5292 68.144C65.5292 67.7884 65.4283 67.5195 64.9747 67.5195C64.5211 67.5195 64.4141 67.7816 64.4132 68.1398C64.4132 68.7353 64.4132 69.3308 64.4132 69.9264C64.4132 71.6067 64.4132 73.287 64.4132 74.9673C64.4132 75.2608 64.3807 75.5858 64.8037 75.6802C65.2537 75.7814 65.5192 75.5807 65.5237 75.077" fill="#D1D1D1"/>
<path d="M21.1865 77.2935C20.7077 77.3003 20.5988 77.5657 20.5988 77.946C20.5988 79.6776 20.5988 81.4095 20.5988 83.1417C20.5988 83.5535 20.7302 83.8164 21.2288 83.8053C21.7031 83.7951 21.821 83.5339 21.8201 83.1519C21.8201 82.2952 21.8201 81.4376 21.8201 80.5809C21.8201 79.7063 21.8201 78.8316 21.8201 77.957C21.8201 77.5427 21.6796 77.2875 21.1829 77.2943" fill="#D1D1D1"/>
<path d="M39.0684 66.9069C39.1568 66.8129 39.2653 66.7377 39.3867 66.6861C39.5081 66.6346 39.6396 66.608 39.7727 66.608C39.9057 66.608 40.0373 66.6346 40.1587 66.6861C40.28 66.7377 40.3885 66.8129 40.4769 66.9069C40.502 66.9316 40.5342 66.9489 40.5695 66.9566C40.6048 66.9643 40.6417 66.9621 40.6757 66.9502C40.7097 66.9384 40.7393 66.9175 40.7609 66.89C40.7825 66.8625 40.7952 66.8296 40.7973 66.7954C40.6775 66.51 40.4992 66.2498 40.2726 66.0298C40.2176 65.9411 40.1393 65.8674 40.0453 65.8158C39.9512 65.7642 39.8447 65.7365 39.7359 65.7354C39.6272 65.7343 39.52 65.7598 39.4248 65.8094C39.3296 65.8591 39.2496 65.9312 39.1926 66.0187C39.0379 66.1925 38.8931 66.3739 38.7588 66.5623C38.6859 66.6593 38.5842 66.7716 38.7057 66.889C38.7524 66.9344 38.8155 66.9613 38.8824 66.9643C38.9492 66.9673 39.0147 66.9462 39.0657 66.9052" fill="#D1D1D1"/>
</svg>
